<?xml version="1.0" encoding="iso-8859-1"?>
<!-- Generator: Adobe Illustrator 19.0.0, SVG Export Plug-In . SVG Version: 6.00 Build 0)  -->
<svg version="1.1" id="Layer_1" xmlns="http://www.w3.org/2000/svg" xmlns:xlink="http://www.w3.org/1999/xlink" x="0px" y="0px"
	 viewBox="0 0 511.999 511.999" style="enable-background:new 0 0 511.999 511.999;" xml:space="preserve">
<path style="fill:#4A7DBA;" d="M412.924,321.687H99.075c-48.558,0-87.922,39.365-87.922,87.922v23.372l0,0
	c27.782,42.367,75.038,67.889,125.701,67.889h238.292c50.663,0,97.919-25.522,125.701-67.889l0,0v-23.372
	C500.847,361.052,461.482,321.687,412.924,321.687z"/>
<path style="fill:#87DFD6;" d="M255.999,165.875c-86.053,0-155.812,69.759-155.812,155.812h311.624
	C411.811,235.634,342.052,165.875,255.999,165.875z"/>
<g>
	<polygon style="fill:#FFFE9F;" points="63.783,61.212 79.891,93.849 115.908,99.082 89.846,124.486 95.999,160.357 63.783,143.421 
		31.569,160.357 37.722,124.486 11.66,99.082 47.677,93.849 	"/>
	<polygon style="fill:#FFFE9F;" points="448.215,61.212 432.108,93.849 396.091,99.082 422.153,124.486 416,160.357 
		448.215,143.421 480.43,160.357 474.277,124.486 500.339,99.082 464.322,93.849 	"/>
	<polygon style="fill:#FFFE9F;" points="255.999,11.129 274.371,48.353 315.449,54.323 285.725,83.297 292.742,124.21 
		255.999,104.894 219.257,124.21 226.274,83.297 196.549,54.323 237.628,48.353 	"/>
</g>
<path d="M144.705,377.334c0-12.274-9.985-22.259-22.259-22.259s-22.259,9.985-22.259,22.259c0,12.274,9.985,22.259,22.259,22.259
	S144.705,389.608,144.705,377.334z"/>
<path d="M189.223,399.593c12.274,0,22.259-9.985,22.259-22.259c0-12.274-9.985-22.259-22.259-22.259s-22.259,9.985-22.259,22.259
	C166.964,389.608,176.949,399.593,189.223,399.593z"/>
<path d="M389.552,399.593c12.274,0,22.259-9.985,22.259-22.259c0-12.274-9.985-22.259-22.259-22.259
	c-12.274,0-22.259,9.985-22.259,22.259C367.294,389.608,377.279,399.593,389.552,399.593z"/>
<path d="M322.776,399.593c12.274,0,22.259-9.985,22.259-22.259c0-12.274-9.985-22.259-22.259-22.259
	c-12.274,0-22.259,9.985-22.259,22.259C300.517,389.608,310.502,399.593,322.776,399.593z"/>
<path d="M255.999,399.593c12.274,0,22.259-9.985,22.259-22.259c0-12.274-9.985-22.259-22.259-22.259
	c-12.274,0-22.259,9.985-22.259,22.259C233.741,389.608,243.726,399.593,255.999,399.593z"/>
<path d="M510.979,437.568c0.203-0.445,0.381-0.904,0.523-1.378c0.01-0.033,0.017-0.069,0.027-0.102
	c0.124-0.426,0.217-0.865,0.29-1.311c0.019-0.112,0.037-0.224,0.051-0.337c0.062-0.477,0.106-0.962,0.106-1.457V409.61
	c0-51.357-39.287-93.704-89.385-98.579c-5.516-87.104-78.121-156.285-166.592-156.285S94.923,223.927,89.408,311.032
	C39.31,315.906,0.023,358.255,0.023,409.61v23.372c0,0.495,0.043,0.979,0.106,1.457c0.014,0.114,0.033,0.225,0.051,0.337
	c0.072,0.446,0.167,0.885,0.29,1.311c0.01,0.035,0.017,0.069,0.027,0.102c0.142,0.474,0.321,0.933,0.523,1.378
	c0.038,0.082,0.079,0.162,0.118,0.245c0.195,0.402,0.408,0.791,0.648,1.164c0.022,0.035,0.037,0.072,0.059,0.107
	c0.017,0.026,0.036,0.051,0.052,0.077c0.019,0.029,0.039,0.057,0.058,0.086c29.953,45.558,80.366,72.753,134.897,72.753h238.291
	c54.533,0,104.945-27.195,134.897-72.753c0.019-0.029,0.039-0.057,0.058-0.086c0.017-0.026,0.036-0.051,0.052-0.077
	c0.022-0.035,0.038-0.072,0.059-0.107c0.239-0.373,0.454-0.763,0.648-1.164C510.9,437.73,510.942,437.65,510.979,437.568z
	 M255.999,177.005c76.033,0,138.557,58.956,144.258,133.553H111.741C117.443,235.96,179.967,177.005,255.999,177.005z
	 M375.145,489.741H136.853c-39.723,0-76.903-16.749-103.058-45.631h66.763c6.146,0,11.129-4.984,11.129-11.129
	c0-6.146-4.984-11.129-11.129-11.129H22.282v-12.242c0-42.344,34.449-76.793,76.793-76.793h1.113h311.624h1.113
	c42.344,0,76.793,34.449,76.793,76.793v12.242H166.964c-6.146,0-11.129,4.984-11.129,11.129c0,6.146,4.984,11.129,11.129,11.129
	h311.24C452.049,472.993,414.869,489.741,375.145,489.741z"/>
<path d="M25.763,128.372L20.6,158.476c-0.716,4.176,1.001,8.395,4.428,10.885c1.939,1.41,4.236,2.126,6.543,2.126
	c1.772,0,3.549-0.423,5.177-1.278l27.034-14.213l27.036,14.213c3.748,1.969,8.291,1.643,11.72-0.848
	c3.427-2.49,5.143-6.709,4.428-10.885l-5.163-30.104l21.872-21.32c3.034-2.957,4.125-7.38,2.816-11.409
	c-1.31-4.029-4.792-6.966-8.984-7.576l-30.228-4.392l-13.518-27.39c-1.875-3.8-5.743-6.205-9.98-6.205s-8.106,2.405-9.981,6.204
	l-13.517,27.39l-30.227,4.392c-4.192,0.61-7.675,3.547-8.984,7.576s-0.217,8.452,2.816,11.409L25.763,128.372z M49.278,104.862
	c3.625-0.528,6.758-2.805,8.379-6.089l6.126-12.414l6.127,12.414c1.622,3.284,4.754,5.561,8.379,6.089l13.703,1.991l-9.914,9.664
	c-2.622,2.558-3.82,6.24-3.201,9.852l2.341,13.645l-12.255-6.443c-1.62-0.853-3.4-1.278-5.179-1.278
	c-1.778,0-3.558,0.426-5.179,1.278l-12.253,6.443l2.341-13.645c0.619-3.61-0.579-7.294-3.201-9.852l-9.914-9.664L49.278,104.862z"/>
<path d="M410.194,128.372l-5.163,30.104c-0.716,4.176,1.001,8.395,4.428,10.885c3.427,2.491,7.972,2.817,11.72,0.848l27.036-14.213
	l27.034,14.213c1.628,0.856,3.407,1.278,5.177,1.278c2.307,0,4.604-0.718,6.543-2.126c3.427-2.49,5.143-6.709,4.428-10.885
	l-5.163-30.104l21.872-21.32c3.034-2.957,4.125-7.38,2.816-11.409c-1.31-4.029-4.792-6.966-8.984-7.576l-30.228-4.392
	l-13.517-27.389c-1.875-3.798-5.744-6.204-9.981-6.204c-4.236,0-8.106,2.405-9.981,6.204l-13.518,27.389l-30.228,4.392
	c-4.192,0.61-7.675,3.547-8.984,7.576c-1.309,4.029-0.217,8.452,2.816,11.409L410.194,128.372z M433.71,104.862
	c3.625-0.528,6.758-2.805,8.379-6.089l6.127-12.414l6.126,12.414c1.622,3.284,4.754,5.561,8.379,6.089l13.703,1.991l-9.914,9.664
	c-2.622,2.558-3.82,6.24-3.201,9.852l2.341,13.645l-12.254-6.443c-3.243-1.704-7.117-1.704-10.358,0l-12.255,6.443l2.341-13.645
	c0.619-3.61-0.579-7.294-3.201-9.852l-9.914-9.664L433.71,104.862z"/>
<path d="M214.315,87.183l-6.028,35.146c-0.717,4.176,1.001,8.395,4.428,10.885c3.428,2.49,7.972,2.817,11.72,0.848l31.563-16.594
	l31.563,16.594c1.628,0.857,3.407,1.278,5.177,1.278c2.307,0,4.604-0.718,6.543-2.126c3.427-2.49,5.144-6.709,4.428-10.885
	l-6.028-35.146l25.534-24.891c3.034-2.957,4.125-7.381,2.816-11.409c-1.31-4.029-4.792-6.966-8.985-7.576l-35.288-5.126
	L265.979,6.205c-1.874-3.8-5.743-6.205-9.98-6.205c-4.237,0-8.106,2.405-9.981,6.204l-15.782,31.977l-35.288,5.126
	c-4.194,0.61-7.675,3.547-8.985,7.576c-1.309,4.028-0.217,8.452,2.816,11.409L214.315,87.183z M239.229,59.368
	c3.626-0.528,6.759-2.805,8.38-6.089l8.39-17.001l8.39,17.001c1.622,3.284,4.754,5.561,8.38,6.089l18.762,2.726l-13.576,13.235
	c-2.622,2.558-3.82,6.24-3.201,9.852l3.205,18.686l-16.782-8.823c-1.62-0.853-3.4-1.278-5.179-1.278
	c-1.778,0-3.558,0.426-5.178,1.278l-16.782,8.823l3.205-18.686c0.619-3.61-0.579-7.294-3.201-9.852l-13.577-13.235L239.229,59.368z"
	/>
<path d="M133.946,421.852h-0.371c-6.146,0-11.129,4.984-11.129,11.129c0,6.146,4.984,11.129,11.129,11.129h0.371
	c6.146,0,11.129-4.984,11.129-11.129C145.076,426.835,140.092,421.852,133.946,421.852z"/>
<g>
</g>
<g>
</g>
<g>
</g>
<g>
</g>
<g>
</g>
<g>
</g>
<g>
</g>
<g>
</g>
<g>
</g>
<g>
</g>
<g>
</g>
<g>
</g>
<g>
</g>
<g>
</g>
<g>
</g>
</svg>
