<?xml version="1.0" standalone="no"?>
<!DOCTYPE svg PUBLIC "-//W3C//DTD SVG 20010904//EN"
 "http://www.w3.org/TR/2001/REC-SVG-20010904/DTD/svg10.dtd">
<svg version="1.0" xmlns="http://www.w3.org/2000/svg"
 width="700.000000pt" height="700.000000pt" viewBox="0 0 700.000000 700.000000"
 preserveAspectRatio="xMidYMid meet">
<metadata>
Created by potrace 1.14, written by Peter Selinger 2001-2017
</metadata>
<g transform="translate(0.000000,700.000000) scale(0.100000,-0.100000)"
fill="#000000" stroke="none">
<path d="M3432 6984 c-45 -23 -55 -39 -176 -286 -84 -170 -112 -219 -129 -223
-25 -6 -304 -46 -422 -61 -61 -8 -100 -22 -123 -47 -23 -24 -48 -83 -47 -107
5 -63 21 -84 207 -268 l190 -188 -12 -64 c-7 -36 -14 -76 -17 -90 -33 -168
-58 -351 -52 -379 14 -68 78 -121 148 -121 23 0 96 33 240 107 113 59 219 114
235 122 26 13 32 13 78 -12 27 -15 124 -66 216 -113 92 -48 172 -91 179 -96
18 -14 101 -6 133 13 16 10 36 30 46 44 34 52 33 84 -10 320 -3 17 -12 71 -20
120 -8 50 -18 104 -21 120 -6 28 4 40 180 213 102 101 190 195 196 209 26 70
6 142 -51 183 -31 22 -56 27 -315 65 -22 3 -53 8 -70 10 -16 3 -50 7 -75 10
-25 3 -55 8 -67 10 -18 4 -46 54 -138 239 -86 176 -123 240 -145 256 -41 29
-115 35 -158 14z"/>
<path d="M841 6309 c-65 -14 -82 -37 -186 -246 -55 -111 -107 -205 -115 -207
-17 -6 -276 -44 -355 -52 -70 -7 -134 -41 -156 -84 -22 -41 -24 -104 -5 -141
7 -15 84 -96 170 -180 178 -174 161 -133 130 -314 -8 -49 -17 -101 -19 -115
-2 -14 -9 -55 -16 -93 -18 -107 3 -167 74 -203 50 -26 103 -19 187 24 198 103
296 155 306 163 7 6 28 0 55 -14 342 -181 361 -189 407 -189 77 2 139 61 143
138 2 32 -3 65 -33 234 -11 63 -22 128 -24 144 -2 15 -6 37 -10 48 -5 16 26
50 155 176 101 99 166 170 175 193 26 62 3 138 -53 179 -28 19 -196 50 -411
76 -30 3 -58 8 -62 11 -4 2 -51 90 -103 196 -101 206 -106 213 -147 239 -33
22 -64 27 -107 17z"/>
<path d="M6085 6309 c-54 -15 -84 -57 -180 -253 -52 -107 -101 -196 -110 -199
-8 -4 -66 -13 -130 -22 -63 -9 -125 -18 -137 -20 -13 -3 -43 -7 -68 -10 -112
-13 -152 -35 -181 -99 -19 -44 -17 -91 6 -136 7 -14 83 -92 169 -175 136 -131
156 -153 151 -175 -9 -43 -14 -73 -20 -115 -3 -22 -8 -47 -10 -55 -2 -8 -6
-31 -9 -50 -3 -19 -7 -44 -10 -55 -2 -11 -7 -42 -10 -69 -4 -27 -8 -52 -9 -55
0 -3 2 -25 6 -48 8 -46 42 -88 86 -105 59 -23 96 -12 279 83 97 50 186 98 196
105 17 12 37 4 175 -68 241 -127 251 -131 291 -131 45 0 94 27 124 66 25 34
29 107 10 200 -8 34 -16 80 -19 102 -3 22 -8 54 -12 70 -3 17 -7 39 -8 50 -2
11 -6 38 -9 60 l-6 41 161 158 c88 88 165 170 170 183 22 58 8 121 -36 165
-34 34 -63 43 -208 63 -27 4 -57 8 -66 10 -10 2 -42 6 -72 10 -61 8 -152 24
-154 28 -1 1 -43 88 -94 192 -51 105 -100 198 -109 209 -36 39 -106 59 -157
45z"/>
<path d="M3397 4884 c-1 -1 -38 -5 -81 -8 -107 -9 -222 -25 -271 -38 -22 -5
-51 -12 -65 -14 -61 -11 -240 -67 -315 -99 -16 -7 -55 -23 -85 -36 -69 -29
-162 -78 -264 -138 -77 -45 -276 -191 -321 -234 -12 -12 -44 -43 -71 -68 -302
-285 -530 -674 -634 -1079 -10 -41 -21 -88 -24 -105 -3 -16 -8 -41 -11 -55
-10 -54 -15 -87 -21 -145 -11 -119 -14 -125 -54 -125 -85 0 -301 -65 -429
-129 -92 -47 -224 -135 -283 -189 -83 -76 -95 -88 -152 -155 -105 -125 -203
-300 -246 -440 -54 -174 -61 -230 -67 -503 -6 -305 -9 -293 101 -438 94 -122
107 -137 227 -256 235 -234 524 -410 844 -516 73 -24 143 -45 156 -48 13 -2
53 -11 89 -19 36 -9 88 -18 115 -21 28 -3 61 -9 75 -13 38 -11 3653 -13 3735
-2 39 5 88 11 110 14 222 26 546 137 765 262 265 151 518 379 699 630 83 115
83 113 80 374 -2 266 -17 377 -73 542 -91 273 -260 499 -504 674 -48 35 -90
63 -95 63 -4 0 -24 11 -45 24 -78 49 -298 125 -407 141 -94 13 -101 16 -101
38 -1 65 -15 164 -39 289 -127 648 -572 1241 -1170 1557 -128 68 -339 154
-431 176 -10 3 -46 12 -79 20 -66 17 -72 19 -165 35 -36 6 -75 13 -88 15 -62
11 -396 26 -405 19z"/>
</g>
</svg>
